<svg id="Layer_1" enable-background="new 0 0 60 60" height="512" viewBox="0 0 60 60" width="512" xmlns="http://www.w3.org/2000/svg"><g><g><g><path d="m33.7371635 51.1323242c-.4638672 0-.9267578-.0595703-1.3779297-.1801758l-10.5039063-2.7480469-2.7509766 1.609375c-.4755859.2773438-1.0888672.1191406-1.3681641-.3583984l-5.2402344-8.9545898c-.1337891-.2290039-.1708984-.5014648-.1044922-.7583008.0673828-.2563477.234375-.4760742.4628906-.6098633l6.7060547-3.9204102c1.8193359-1.0717773 3.9638672-1.3706055 6.0332031-.8378906l8.7148438 2.2885742c1.0429688.2680664 1.921875.9311523 2.4697266 1.8647461.3310547.5634766.5175781 1.184082.5527344 1.8178711l9.8740234-6.4375c1.046875-.6191406 2.2734375-.7719727 3.4023438-.4428711 1.0722656.3125 1.9326172 1.015625 2.4238281 1.980957.4609375.8833008.5761719 1.9111328.3212891 2.8862305-.0009766.0043945-.0029297.0087891-.0039063.0131836-.2851563 1.0336914-.9492188 1.9042969-1.8701172 2.4511719l-14.9482422 9.5727539c-.8613279.5053711-1.8281248.7631836-2.7929686.7631836zm-12.0292968-5.0004883c.0849609 0 .1699219.0107422.2529297.0327148l10.9101563 2.8544922c.8789063.234375 1.8300781.105957 2.6142578-.3549805l14.9433594-9.5698242c.4941406-.2939453.84375-.7519531.9902344-1.2744141.1269531-.4921875.0683594-1.0097656-.1650391-1.4584961-.2431641-.4760742-.6699219-.8198242-1.2060547-.9760742-.5996094-.1767578-1.2529297-.0947266-1.7890625.2216797l-12.3476563 8.0517578c-.4355469.2836914-1.0146484.1860352-1.3339844-.222168-.3193359-.4091797-.2734375-.9946289.1074219-1.3481445.2802734-.2612305.4873047-.609375.5820313-.9799805.1416016-.5405273.0654297-1.0947266-.2128906-1.5683594-.2763672-.4711914-.7197266-.8056641-1.2480469-.9418945l-8.7148438-2.2885742c-1.5488281-.3979492-3.1552734-.1762695-4.5175781.6274414l-5.8457031 3.4169922 4.2304688 7.2280273 2.2451172-1.3134766c.1542967-.0903318.3291014-.1367186.5048827-.1367186zm30.6767578-8.0527343h.0097656z" fill="#b4b0b9"/></g></g><g><g><path d="m34.4295464 43.9667969c-.1640625 0-.3300781-.0097656-.4980469-.0292969-.1767578-.0185547-.3623047-.0522461-.5449219-.1000977l-7.296875-1.1503906c-.5458984-.0864258-.9179688-.5986328-.8310547-1.144043.0849609-.5454102.6015625-.9145508 1.1435547-.831543l7.3945313 1.1708984c.1826172.0429688.2685547.0581055.3574219.0673828.3173828.0371094.6181641.0102539.8925781-.0810547.5234375-.1738281 1.0898438.1088867 1.2646484.6323242.1748047.5239258-.1074219 1.090332-.6318359 1.2651367-.4003907.1337892-.819336.2006838-1.25.2006838z" fill="#b4b0b9"/></g></g><g><g><path d="m16.6570854 54c-.3037109 0-.6015625-.1376953-.796875-.3945313l-9.1416016-12.015625c-.1728516-.2280273-.2402344-.519043-.1845703-.7998047.0546875-.2807617.2285156-.5244141.4755859-.6689453l4.7880864-2.8007813c.4736328-.2783203 1.0878906-.1186523 1.3681641.3583984l7.5673828 12.9360352c.2783203.4765625.1181641 1.0893555-.3583984 1.3681641l-3.2138672 1.8803711c-.1582036.0922852-.3320317.1367188-.5039067.1367188zm-7.6630859-12.7226562 7.921875 10.4121094 1.5859375-.9282227-6.5576172-11.2094727z" fill="#706b78"/></g></g><g><g><path d="m35.3631401 13.5517578c-1.2255859 0-11.9775391-.105957-11.9775391-3.7758789s10.7519532-3.7758789 11.9775391-3.7758789 11.9775391.105957 11.9775391 3.7758789-10.7519532 3.7758789-11.9775391 3.7758789zm-9.9257812-3.7758789c.6328125.6835938 4.2167969 1.7758789 9.9257813 1.7758789 5.7099609 0 9.2939453-1.0922852 9.9257813-1.7758789-.6318361-.6835937-4.2158205-1.7758789-9.9257814-1.7758789-5.7089844 0-9.2929687 1.0922852-9.9257812 1.7758789zm19.921875.0961914h.0097656z" fill="#15ba77"/></g></g><g><g><path d="m35.361187 17.7021484c-1.2255859 0-11.9765625-.105957-11.9765625-3.7763672v-4.1479492c0-.5522461.4472656-1 1-1s1 .4477539 1 1v4.1479492c.3417969.5766602 3.9902344 1.7763672 9.9765625 1.7763672 5.9892578 0 9.640625-1.2001953 10.0019531-1.8720703l-.0185547-4.0522461c0-.5522461.4472656-1 1-1s1 .4477539 1 1v4.1479492c0 3.6704102-10.7568359 3.7763672-11.9833984 3.7763672z" fill="#15ba77"/></g></g><g><g><path d="m35.3660698 21.1806641c-1.2265625 0-11.9833984-.105957-11.9833984-3.7709961 0-1.7133789 2.3544922-2.453125 3.1279297-2.6962891.5283203-.1679688 1.0878906.1279297 1.2539063.6542969.1650391.5268555-.1269531 1.0883789-.6542969 1.2539063-1.0175781.3198242-1.4941406.6289063-1.6689453.7939453.6474609.6826172 4.2294922 1.7651367 9.9248047 1.7651367 5.6904297 0 9.2695313-1.0825195 9.9179688-1.7651367-.1748047-.1650391-.6513672-.4741211-1.6699219-.7939453-.5263672-.1655273-.8193359-.7270508-.6542969-1.2539063.1640625-.5263672.7226563-.8227539 1.2539063-.6542969.7734375.2431641 3.1289063.9829102 3.1289063 2.6962891-.0000002 3.665039-10.7509768 3.7709961-11.9765627 3.7709961z" fill="#15ba77"/></g></g><g><g><path d="m35.361187 25.3339844c-1.2255859 0-11.9765625-.105957-11.9765625-3.7758789v-4.1479492c0-.5522461.4472656-1 1-1s1 .4477539 1 1v4.1479492c.3417969.5761719 3.9902344 1.7758789 9.9765625 1.7758789 5.9892578 0 9.640625-1.199707 10.0019531-1.871582l-.0185547-4.0522461c0-.5522461.4472656-1 1-1s1 .4477539 1 1v4.1479492c0 3.6699218-10.7568359 3.7758789-11.9833984 3.7758789z" fill="#15ba77"/></g></g><g><g><path d="m35.3660698 29.2114258c-1.2265625 0-11.9833984-.105957-11.9833984-3.7709961 0-1.2822266 1.2685547-2.2324219 3.8769531-2.9052734.5371094-.1337891 1.0800781.184082 1.21875.71875.1376953.534668-.1845703 1.0800781-.71875 1.2177734-1.4570313.3759766-2.1025391.7709961-2.3173828.9741211.65625.6831055 4.2382813 1.765625 9.9238281 1.765625 5.765625 0 9.3681641-1.1152344 9.9443359-1.7963867-.1494141-.1137695-.7744141-.5400391-2.3388672-.9433594-.5341797-.1376953-.8564453-.6831055-.71875-1.2177734s.6835938-.8530273 1.21875-.71875c2.6044922.6713867 3.8710938 1.621582 3.8710938 2.9052734 0 3.6650391-10.7509766 3.7709961-11.9765625 3.7709961z" fill="#15ba77"/></g></g><g><g><path d="m35.361187 33.3632813c-1.2255859 0-11.9765625-.105957-11.9765625-3.7763672v-4.1479492c0-.5522461.4472656-1 1-1s1 .4477539 1 1v4.1479492c.3417969.5766602 3.9902344 1.7763672 9.9765625 1.7763672 5.9892578 0 9.640625-1.2001953 10.0019531-1.8720703l-.0185547-4.0522461c0-.5522461.4472656-1 1-1s1 .4477539 1 1v4.1479492c0 3.6704101-10.7568359 3.7763672-11.9833984 3.7763672z" fill="#15ba77"/></g></g></g></svg>