<svg id="Capa_1" enable-background="new 0 0 512 512" height="512" viewBox="0 0 512 512" width="512" xmlns="http://www.w3.org/2000/svg"><g><path d="m210.875 0h30v77.75h-30z" fill="#4e5f7f"/><path d="m271.125 0h30v77.75h-30z" fill="#3e4665"/><path d="m210.875 434.25h30v77.75h-30z" fill="#4e5f7f"/><path d="m271.125 434.25h30v77.75h-30z" fill="#3e4665"/><path d="m436.75 241h75.25v30h-75.25z" fill="#3e4665"/><g fill="#4e5f7f"><path d="m0 241h75.25v30h-75.25z"/><path d="m0 150.625h99.437v30h-99.437z"/><path d="m0 331.375h99.437v30h-99.437z"/></g><path d="m412.563 150.625h99.437v30h-99.437z" fill="#3e4665"/><path d="m412.563 331.375h99.437v30h-99.437z" fill="#3e4665"/><path d="m160.786 119.608-41.491-72.608h-74.674v-30h92.084l50.128 87.724z" fill="#4e5f7f"/><path d="m351.214 119.608-26.047-14.884 50.128-87.724h92.084v30h-74.674z" fill="#3e4665"/><circle cx="32" cy="32" fill="#18b2ff" r="32"/><path d="m136.705 495h-92.084v-30h74.674l41.491-72.608 26.047 14.884z" fill="#4e5f7f"/><path d="m467.379 495h-92.084l-50.128-87.724 26.047-14.884 41.491 72.608h74.674z" fill="#3e4665"/><circle cx="480" cy="32" fill="#1588df" r="32"/><circle cx="32" cy="480" fill="#18b2ff" r="32"/><circle cx="256" cy="256" fill="#ecf2ff" r="192"/><path d="m448 256c0 106.04-85.96 192-192 192v-384c106.04 0 192 85.96 192 192z" fill="#dae6fe"/><g><path d="m286.1 195.76h-45.1v120.48h30v-30.18h15.1c24.9 0 45.15-20.26 45.15-45.15 0-24.9-20.25-45.15-45.15-45.15zm0 60.3h-15.1v-30.3h15.1c8.35 0 15.15 6.79 15.15 15.15 0 8.35-6.8 15.15-15.15 15.15z" fill="#18b2ff"/><path d="m286.1 195.76h-30.1v120.48h15v-30.18h15.1c24.9 0 45.15-20.26 45.15-45.15 0-24.9-20.25-45.15-45.15-45.15zm0 60.3h-15.1v-30.3h15.1c8.35 0 15.15 6.79 15.15 15.15 0 8.35-6.8 15.15-15.15 15.15z" fill="#1588df"/><path d="m171.625 195.757c-24.882 0-45.125 20.243-45.125 45.125v75.361h30v-30.187h30.25v30.193h30v-75.368c0-24.881-20.243-45.124-45.125-45.124zm-15.125 60.3v-15.175c0-8.34 6.785-15.125 15.125-15.125s15.125 6.785 15.125 15.125v15.175z" fill="#18b2ff"/><path d="m350.859 195.75h30v120.5h-30z" fill="#1588df"/></g><circle cx="480" cy="480" fill="#1588df" r="32"/></g></svg>